<svg>
    <symbol id="github" xmlns="http://www.w3.org/2000/svg" viewBox="0 0 24 24" width="24px" height="24px"
            fill="#d1e8e2">
        <path d="M10.9,2.1c-4.6,0.5-8.3,4.2-8.8,8.7c-0.5,4.7,2.2,8.9,6.3,10.5C8.7,21.4,9,21.2,9,20.8v-1.6c0,0-0.4,0.1-0.9,0.1 c-1.4,0-2-1.2-2.1-1.9c-0.1-0.4-0.3-0.7-0.6-1C5.1,16.3,5,16.3,5,16.2C5,16,5.3,16,5.4,16c0.6,0,1.1,0.7,1.3,1c0.5,0.8,1.1,1,1.4,1 c0.4,0,0.7-0.1,0.9-0.2c0.1-0.7,0.4-1.4,1-1.8c-2.3-0.5-4-1.8-4-4c0-1.1,0.5-2.2,1.2-3C7.1,8.8,7,8.3,7,7.6C7,7.2,7,6.6,7.3,6 c0,0,1.4,0,2.8,1.3C10.6,7.1,11.3,7,12,7s1.4,0.1,2,0.3C15.3,6,16.8,6,16.8,6C17,6.6,17,7.2,17,7.6c0,0.8-0.1,1.2-0.2,1.4 c0.7,0.8,1.2,1.8,1.2,3c0,2.2-1.7,3.5-4,4c0.6,0.5,1,1.4,1,2.3v2.6c0,0.3,0.3,0.6,0.7,0.5c3.7-1.5,6.3-5.1,6.3-9.3 C22,6.1,16.9,1.4,10.9,2.1z"/>
    </symbol>

    <symbol id="linkedin" xmlns="http://www.w3.org/2000/svg" viewBox="0 0 24 24" width="24px" height="24px"
            fill="#d1e8e2">
        <path d="M 5 3 C 3.895 3 3 3.895 3 5 L 3 19 C 3 20.105 3.895 21 5 21 L 19 21 C 20.105 21 21 20.105 21 19 L 21 5 C 21 3.895 20.105 3 19 3 L 5 3 z M 5 5 L 19 5 L 19 19 L 5 19 L 5 5 z M 7.7792969 6.3164062 C 6.9222969 6.3164062 6.4082031 6.8315781 6.4082031 7.5175781 C 6.4082031 8.2035781 6.9223594 8.7167969 7.6933594 8.7167969 C 8.5503594 8.7167969 9.0644531 8.2035781 9.0644531 7.5175781 C 9.0644531 6.8315781 8.5502969 6.3164062 7.7792969 6.3164062 z M 6.4765625 10 L 6.4765625 17 L 9 17 L 9 10 L 6.4765625 10 z M 11.082031 10 L 11.082031 17 L 13.605469 17 L 13.605469 13.173828 C 13.605469 12.034828 14.418109 11.871094 14.662109 11.871094 C 14.906109 11.871094 15.558594 12.115828 15.558594 13.173828 L 15.558594 17 L 18 17 L 18 13.173828 C 18 10.976828 17.023734 10 15.802734 10 C 14.581734 10 13.930469 10.406562 13.605469 10.976562 L 13.605469 10 L 11.082031 10 z"/>
    </symbol>

    <symbol id="telegram" xmlns="http://www.w3.org/2000/svg" viewBox="0 0 24 24" width="24px" height="24px"
            fill="#d1e8e2">
        <path d="M 20.572266 3.0117188 C 20.239891 2.9764687 19.878625 3.028375 19.515625 3.171875 C 19.065625 3.348875 12.014406 6.3150313 5.4414062 9.0820312 L 3.2695312 9.9960938 C 2.4285313 10.337094 2.0039062 10.891672 2.0039062 11.638672 C 2.0039062 12.161672 2.22525 12.871063 3.28125 13.289062 L 6.9472656 14.757812 C 7.2642656 15.708813 8.0005469 17.916906 8.1855469 18.503906 C 8.2955469 18.851906 8.5733906 19.728594 9.2753906 19.933594 C 9.4193906 19.982594 9.5696563 20.007813 9.7226562 20.007812 C 10.165656 20.007812 10.484625 19.801641 10.640625 19.681641 L 12.970703 17.710938 L 15.800781 20.328125 C 15.909781 20.439125 16.486719 21 17.261719 21 C 18.228719 21 18.962234 20.195016 19.115234 19.416016 C 19.198234 18.989016 21.927734 5.2870625 21.927734 5.2890625 C 22.172734 4.1900625 21.732219 3.6199531 21.449219 3.3769531 C 21.206719 3.1694531 20.904641 3.0469688 20.572266 3.0117188 z M 19.910156 5.171875 C 19.533156 7.061875 17.478016 17.378234 17.166016 18.865234 L 13.029297 15.039062 L 10.222656 17.416016 L 11 14.375 C 11 14.375 16.362547 8.9468594 16.685547 8.6308594 C 16.945547 8.3778594 17 8.2891719 17 8.2011719 C 17 8.0841719 16.939781 8 16.800781 8 C 16.675781 8 16.506016 8.1197812 16.416016 8.1757812 C 15.272669 8.8885973 10.404094 11.662239 8.0078125 13.025391 L 4.53125 11.636719 L 6.21875 10.927734 C 10.51775 9.1177344 18.174156 5.893875 19.910156 5.171875 z"/>
    </symbol>
    <symbol width="34" height="34" id="color-theme" viewBox="0 0 34 34" fill="none"
            xmlns="http://www.w3.org/2000/svg">
        <path d="M34 2.41545C34 1.10107 32.9282 0.0306549 31.6123 0.0306549C30.6486 0.0306549 29.786 0.60437 29.4128 1.49371L27.2667 6.62095C26.6269 6.01904 25.7924 5.63909 24.8819 5.63909H3.84023C1.90729 5.63909 0.333374 7.213 0.333374 9.14595V30.1876C0.333374 32.1205 1.90729 33.6944 3.84023 33.6944H24.8819C26.8148 33.6944 28.3887 32.1205 28.3887 30.1876L28.3889 14.8344L33.7757 3.47072C33.9227 3.15792 34 2.80989 34 2.41581L34 2.41545ZM26.9859 30.1874C26.9859 31.3475 26.0419 32.2916 24.8817 32.2916H3.84011C2.68 32.2916 1.73595 31.3475 1.73595 30.1874V9.14577C1.73595 7.98565 2.68 7.0416 3.84011 7.0416H24.8817C25.621 7.0416 26.283 7.44271 26.6618 8.06573L24.1805 13.9963V10.5484C24.1805 10.1612 23.8663 9.84693 23.479 9.84693H5.24317C4.85592 9.84693 4.5417 10.1612 4.5417 10.5484V16.1594C4.5417 16.5467 4.85592 16.8609 5.24317 16.8609H22.9813L22.3935 18.2636H16.4652C16.0779 18.2636 15.7637 18.5778 15.7637 18.9651V27.3817C15.7637 27.4 15.7722 27.4153 15.7736 27.4336C15.1971 27.9455 14.8436 28.1167 14.8182 28.1266C14.5965 28.2093 14.431 28.396 14.3777 28.6273C14.3244 28.863 14.3946 29.1099 14.5655 29.2811C15.5813 30.2968 16.9825 30.6838 18.353 30.6838C20.1052 30.6838 21.8037 30.0497 22.5698 29.2811C23.6724 28.1785 24.4805 25.9931 23.8702 24.3642L26.986 17.7938L26.9859 30.1874ZM18.0715 23.3813C17.6351 23.8177 17.3643 24.2707 17.1666 24.7098V19.6683H21.8071L20.7311 22.2382C19.7941 22.2213 18.8528 22.5986 18.0715 23.3814L18.0715 23.3813ZM17.1359 28.0864C17.7223 27.4986 17.9299 26.8225 18.1291 26.1687C18.3226 25.5318 18.5064 24.9287 19.0646 24.3703C20.0564 23.3786 21.2895 23.3786 22.2812 24.3703C23.1692 25.2582 22.4916 27.3765 21.5798 28.2884C20.8194 29.0474 18.1164 29.7796 16.3025 28.8313C16.5439 28.6432 16.8217 28.4006 17.1359 28.0864ZM22.9237 23.0882C22.6642 22.8778 22.3963 22.6982 22.1157 22.5664L24.0038 18.0538L25.0643 18.5742L22.9237 23.0882ZM22.7777 11.2502V15.4586H5.94435V11.2502H22.7777ZM32.5061 2.87266L25.6634 17.3072L24.5453 16.7586L28.1012 8.26082L30.706 2.0355C30.8589 1.66939 31.2152 1.43359 31.6137 1.43359C32.1552 1.43359 32.5956 1.87415 32.5956 2.46313C32.596 2.60356 32.565 2.74799 32.5061 2.87292L32.5061 2.87266Z"
              fill="currentColor"/>
        <path d="M12.2568 18.2639H5.24273C4.85548 18.2639 4.54126 18.5782 4.54126 18.9654V28.7846C4.54126 29.1719 4.85548 29.4861 5.24273 29.4861H12.2568C12.6441 29.4861 12.9583 29.1719 12.9583 28.7846V18.9654C12.9583 18.5782 12.6441 18.2639 12.2568 18.2639ZM11.5556 28.0838H5.94432V19.6671H11.5553L11.5556 28.0838Z"
              fill="currentColor"/>
    </symbol>
    <symbol id="viber" xmlns="http://www.w3.org/2000/svg" viewBox="0 0 24 24" width="24px" height="24px" fill="#d1e8e2">
        <path d="M 10 0.98046875 C 5.664 0.98046875 2 4.4353906 2 8.5253906 L 2 12.023438 C 2 15.409437 3.0230469 17.614281 5.1230469 18.738281 L 5.1230469 21.039062 C 5.1230469 21.820063 5.5876875 22.520219 6.3046875 22.824219 C 6.5486875 22.927219 6.8055469 22.978516 7.0605469 22.978516 C 7.5545469 22.978516 8.0401562 22.788688 8.4101562 22.429688 L 11.371094 19.570312 L 14.439453 19.570312 C 18.608453 19.570313 22 16.184437 22 12.023438 L 22 8.5253906 C 22 4.3643906 18.607453 0.98046875 14.439453 0.98046875 L 10 0.98046875 z M 10 2.9804688 L 14.441406 2.9804688 C 17.507406 2.9804688 20.001953 5.4673906 20.001953 8.5253906 L 20.001953 12.023438 C 20.001953 15.082437 17.506406 17.570312 14.441406 17.570312 L 10.96875 17.570312 C 10.70975 17.570312 10.460437 17.670562 10.273438 17.851562 L 7.1230469 20.894531 L 7.1230469 18.101562 C 7.1230469 17.692563 6.8721875 17.324828 6.4921875 17.173828 C 4.7911875 16.495828 4 14.859438 4 12.023438 L 4 8.5253906 C 4 5.5713906 6.804 2.9804688 10 2.9804688 z M 13 3.9804688 C 12.724 3.9804688 12.5 4.2044688 12.5 4.4804688 C 12.5 4.7564687 12.724 4.9804688 13 4.9804688 C 15.947 4.9804688 18 7.6154687 18 9.9804688 C 18 10.256469 18.224 10.480469 18.5 10.480469 C 18.776 10.480469 19 10.256469 19 9.9804688 C 19 7.1424688 16.536 3.9804688 13 3.9804688 z M 8.0019531 4.9902344 C 7.7637031 4.9543594 7.5116875 5.0109219 7.3046875 5.1699219 L 6.7167969 5.6230469 C 6.0227969 6.1560469 5.8013594 7.0969531 6.1933594 7.8769531 C 6.9313594 9.3439531 8.1679375 11.604406 9.2109375 12.566406 C 10.492938 13.750406 12.507172 15.15375 14.201172 15.84375 C 14.942172 16.14575 15.790547 15.933172 16.310547 15.326172 C 16.495547 15.110172 16.668359 14.890406 16.818359 14.691406 C 17.125359 14.283406 17.036094 13.70525 16.621094 13.40625 L 14.75 12.060547 C 14.348 11.771547 13.786375 11.851188 13.484375 12.242188 L 13.169922 12.589844 C 12.961922 12.819844 12.64875 12.940906 12.34375 12.878906 C 11.86775 12.782906 11.113187 12.472063 10.242188 11.539062 C 9.5231875 10.771063 9.1196562 9.9537656 8.9726562 9.3847656 C 8.8846563 9.0447656 9.0063438 8.6898438 9.2773438 8.4648438 L 9.5917969 8.203125 C 9.9587969 7.899125 10.030859 7.3665156 9.7558594 6.9785156 L 8.6152344 5.3671875 C 8.4652344 5.1546875 8.2402031 5.0261094 8.0019531 4.9902344 z M 13 5.9804688 C 12.724 5.9804688 12.5 6.2044688 12.5 6.4804688 C 12.5 6.7564687 12.724 6.9804688 13 6.9804688 C 14.514 6.9804688 16 8.4664688 16 9.9804688 C 16 10.256469 16.224 10.480469 16.5 10.480469 C 16.776 10.480469 17 10.256469 17 9.9804688 C 17 7.9244688 15.056 5.9804688 13 5.9804688 z M 13 7.9804688 C 12.724 7.9804688 12.5 8.2044688 12.5 8.4804688 C 12.5 8.7564687 12.724 8.9804688 13 8.9804688 C 13.645 8.9804688 14 9.3354688 14 9.9804688 C 14 10.256469 14.224 10.480469 14.5 10.480469 C 14.776 10.480469 15 10.256469 15 9.9804688 C 15 8.7844687 14.196 7.9804688 13 7.9804688 z"/>
    </symbol>


</svg>